<svg width="45" height="59" viewBox="0 0 45 59" fill="none" xmlns="http://www.w3.org/2000/svg">
<path fill-rule="evenodd" clip-rule="evenodd" d="M1.1385 3.7271C1.21614 3.07431 1.445 2.44862 1.80689 1.89979C2.16877 1.35097 2.6537 0.894127 3.22312 0.565594C3.79254 0.237061 4.43074 0.0458948 5.08701 0.00729283C5.74327 -0.0313092 6.39949 0.0837175 7.0035 0.343228C10.0568 1.64848 16.8993 4.7506 25.5817 9.76173C34.2671 14.7757 40.3765 19.1544 43.0301 21.141C45.2956 22.8401 45.3014 26.2096 43.033 27.9145C40.4052 29.8896 34.3706 34.2107 25.5817 39.288C16.7843 44.3652 10.0223 47.43 6.99775 48.718C4.393 49.8306 1.47775 48.143 1.1385 45.3341C0.741751 42.0509 0 34.596 0 24.5277C0 14.4652 0.738876 7.01323 1.1385 3.7271Z" fill="white" fill-opacity="0.9"/>
</svg>
