<svg width="45" height="40" viewBox="0 0 45 40" fill="none" xmlns="http://www.w3.org/2000/svg">
<path fill-rule="evenodd" clip-rule="evenodd" d="M17.1764 39.7501H26.9902C33.8825 39.7501 37.3297 39.7501 39.8052 38.127C40.8736 37.4272 41.7937 36.5237 42.5126 35.4681C44.1667 33.039 44.1667 29.6536 44.1667 22.8873C44.1667 16.1209 44.1667 12.7356 42.5126 10.3064C41.7937 9.2508 40.8736 8.34729 39.8052 7.64756C38.2152 6.60302 36.2233 6.22981 33.1736 6.09731C31.7183 6.09731 30.4662 5.01523 30.1813 3.61294C29.9636 2.58577 29.3979 1.66527 28.5799 1.00699C27.7619 0.348723 26.7417 -0.0069448 25.6917 0.000102756H18.4749C16.2931 0.000102756 14.4138 1.51281 13.9854 3.61294C13.7005 5.01523 12.4484 6.09731 10.9931 6.09731C7.94558 6.22981 5.95367 6.60523 4.36146 7.64756C3.29381 8.34752 2.37456 9.25101 1.65625 10.3064C0 12.7356 0 16.1187 0 22.8873C0 29.6558 1.31627e-07 33.0368 1.65404 35.4681C2.36954 36.5193 3.28821 37.4225 4.36146 38.127C6.837 39.7501 10.2842 39.7501 17.1764 39.7501ZM22.0833 13.853C17.002 13.853 12.8812 17.8964 12.8812 22.8851C12.8812 27.8737 17.0042 31.9238 22.0833 31.9238C27.1625 31.9238 31.2855 27.8781 31.2855 22.8895C31.2855 17.9009 27.1625 13.853 22.0833 13.853ZM22.0833 17.4658C19.0358 17.4658 16.5625 19.8928 16.5625 22.8873C16.5625 25.8796 19.0358 28.3065 22.0833 28.3065C25.1308 28.3065 27.6042 25.8796 27.6042 22.8873C27.6042 19.895 25.1308 17.4658 22.0833 17.4658ZM32.5111 15.6594C32.5111 14.6612 33.3348 13.853 34.3528 13.853H36.8041C37.8199 13.853 38.6458 14.6612 38.6458 15.6594C38.6412 16.1428 38.4448 16.6046 38.0999 16.9433C37.755 17.282 37.2897 17.4699 36.8063 17.4658H34.3528C34.1133 17.4681 33.8756 17.4233 33.6534 17.3337C33.4312 17.2442 33.2288 17.1118 33.0578 16.9441C32.8868 16.7763 32.7505 16.5765 32.6567 16.3561C32.5629 16.1357 32.5134 15.8989 32.5111 15.6594Z" fill="white" fill-opacity="0.8"/>
</svg>
