<svg width="60" height="60" viewBox="0 0 60 60" fill="none" xmlns="http://www.w3.org/2000/svg">
<circle cx="30" cy="30" r="30" fill="#9530E4"/>
<path d="M23.85 18.7032L25.787 18.1192C26.4263 17.9267 27.1137 17.9734 27.7211 18.2505C28.3285 18.5276 28.8143 19.0162 29.088 19.6252L30.446 22.6452C30.6817 23.1691 30.7474 23.7537 30.6339 24.3168C30.5203 24.88 30.2333 25.3935 29.813 25.7852L27.746 27.7112C27.469 27.9742 27.679 28.9992 28.691 30.7532C29.704 32.5082 30.487 33.2022 30.848 33.0942L33.556 32.2662C34.1049 32.0983 34.6926 32.1063 35.2367 32.2893C35.7808 32.4722 36.254 32.8208 36.59 33.2862L38.52 35.9612C38.9098 36.5013 39.0903 37.1646 39.028 37.8279C38.9656 38.4911 38.6647 39.1091 38.181 39.5672L36.689 40.9802C36.2074 41.4363 35.6133 41.7565 34.9675 41.9081C34.3218 42.0597 33.6473 42.0373 33.013 41.8432C29.887 40.8862 26.992 38.0462 24.289 33.3632C21.58 28.6732 20.557 24.7172 21.27 21.4852C21.4138 20.8339 21.7287 20.2328 22.1822 19.7438C22.6357 19.2548 23.2114 18.8956 23.85 18.7032Z" fill="white"/>
</svg>
