<svg width="60" height="60" viewBox="0 0 60 60" fill="none" xmlns="http://www.w3.org/2000/svg">
<circle cx="30" cy="30" r="30" fill="#9530E4"/>
<path d="M36.5104 23.6355L35.1771 24.6771L29.5 28.8959L23.8229 24.6355L22.4896 23.5938C22.1755 23.334 21.792 23.172 21.3868 23.1279C20.9815 23.0839 20.5722 23.1597 20.2096 23.346C19.847 23.5323 19.547 23.8209 19.3468 24.176C19.1466 24.5311 19.055 24.9371 19.0833 25.3438V37.4167C19.0833 37.7924 19.2326 38.1528 19.4983 38.4185C19.764 38.6841 20.1243 38.8334 20.5 38.8334H23.8229V30.7917L29.5 35.0521L35.1771 30.7917V38.8334H38.5C38.8757 38.8334 39.2361 38.6841 39.5017 38.4185C39.7674 38.1528 39.9167 37.7924 39.9167 37.4167V25.3438C39.9362 24.9406 39.8383 24.5405 39.6346 24.192C39.431 23.8434 39.1306 23.5616 38.7698 23.3806C38.409 23.1997 38.0034 23.1274 37.6023 23.1727C37.2012 23.2179 36.8219 23.3787 36.5104 23.6355Z" fill="white"/>
</svg>
