<svg width="60" height="60" viewBox="0 0 60 60" fill="none" xmlns="http://www.w3.org/2000/svg">
<circle cx="30" cy="30" r="30" fill="#9530E4"/>
<path d="M31.028 20C32.153 20.003 32.724 20.009 33.217 20.023L33.411 20.03C33.635 20.038 33.856 20.048 34.123 20.06C35.187 20.11 35.913 20.278 36.55 20.525C37.21 20.779 37.766 21.123 38.322 21.678C38.8307 22.1777 39.2242 22.7825 39.475 23.45C39.722 24.087 39.89 24.813 39.94 25.878C39.952 26.144 39.962 26.365 39.97 26.59L39.976 26.784C39.991 27.276 39.997 27.847 39.999 28.972L40 29.718V31.028C40.0025 31.7574 39.9948 32.4868 39.977 33.216L39.971 33.41C39.963 33.635 39.953 33.856 39.941 34.122C39.891 35.187 39.721 35.912 39.475 36.55C39.2242 37.2175 38.8307 37.8223 38.322 38.322C37.8223 38.8307 37.2175 39.2242 36.55 39.475C35.913 39.722 35.187 39.89 34.123 39.94L33.411 39.97L33.217 39.976C32.724 39.99 32.153 39.997 31.028 39.999L30.282 40H28.973C28.2433 40.0026 27.5135 39.9949 26.784 39.977L26.59 39.971C26.3526 39.962 26.1153 39.9517 25.878 39.94C24.814 39.89 24.088 39.722 23.45 39.475C22.7828 39.2241 22.1785 38.8306 21.679 38.322C21.17 37.8224 20.7761 37.2176 20.525 36.55C20.278 35.913 20.11 35.187 20.06 34.122L20.03 33.41L20.025 33.216C20.0066 32.4868 19.9983 31.7574 20 31.028V28.972C19.9973 28.2426 20.0046 27.5132 20.022 26.784L20.029 26.59C20.037 26.365 20.047 26.144 20.059 25.878C20.109 24.813 20.277 24.088 20.524 23.45C20.7757 22.7822 21.1702 22.1774 21.68 21.678C22.1792 21.1695 22.7832 20.7761 23.45 20.525C24.088 20.278 24.813 20.11 25.878 20.06C26.144 20.048 26.366 20.038 26.59 20.03L26.784 20.024C27.5132 20.0062 28.2426 19.9986 28.972 20.001L31.028 20ZM30 25C28.6739 25 27.4022 25.5268 26.4645 26.4645C25.5268 27.4021 25 28.6739 25 30C25 31.3261 25.5268 32.5979 26.4645 33.5355C27.4022 34.4732 28.6739 35 30 35C31.3261 35 32.5979 34.4732 33.5356 33.5355C34.4732 32.5979 35 31.3261 35 30C35 28.6739 34.4732 27.4021 33.5356 26.4645C32.5979 25.5268 31.3261 25 30 25ZM30 27C30.394 26.9999 30.7841 27.0775 31.1481 27.2282C31.5121 27.3789 31.8429 27.5998 32.1215 27.8783C32.4001 28.1569 32.6211 28.4875 32.772 28.8515C32.9228 29.2154 33.0005 29.6055 33.0005 29.9995C33.0006 30.3935 32.9231 30.7836 32.7723 31.1476C32.6216 31.5116 32.4007 31.8423 32.1222 32.121C31.8437 32.3996 31.513 32.6206 31.149 32.7714C30.7851 32.9223 30.395 32.9999 30.001 33C29.2054 33 28.4423 32.6839 27.8797 32.1213C27.3171 31.5587 27.001 30.7956 27.001 30C27.001 29.2044 27.3171 28.4413 27.8797 27.8787C28.4423 27.3161 29.2054 27 30.001 27M35.251 23.5C34.9195 23.5 34.6016 23.6317 34.3671 23.8661C34.1327 24.1005 34.001 24.4185 34.001 24.75C34.001 25.0815 34.1327 25.3995 34.3671 25.6339C34.6016 25.8683 34.9195 26 35.251 26C35.5825 26 35.9005 25.8683 36.1349 25.6339C36.3693 25.3995 36.501 25.0815 36.501 24.75C36.501 24.4185 36.3693 24.1005 36.1349 23.8661C35.9005 23.6317 35.5825 23.5 35.251 23.5Z" fill="white"/>
</svg>
