<svg width="13" height="13" viewBox="0 0 13 13" fill="none" xmlns="http://www.w3.org/2000/svg">
<path d="M6.61273 1.01562C7.18375 1.01715 7.47358 1.02019 7.72381 1.0273L7.82228 1.03085C7.93598 1.03491 8.04815 1.03999 8.18367 1.04608C8.72373 1.07146 9.09223 1.15673 9.41556 1.2821C9.75056 1.41103 10.0328 1.58563 10.315 1.86734C10.5732 2.12099 10.7729 2.42794 10.9002 2.76676C11.0256 3.09009 11.1109 3.45859 11.1362 3.99916C11.1423 4.13417 11.1474 4.24634 11.1515 4.36055L11.1545 4.45902C11.1621 4.70875 11.1652 4.99857 11.1662 5.56959L11.1667 5.94825V6.61317C11.1679 6.9834 11.164 7.35363 11.155 7.72375L11.152 7.82222C11.1479 7.93642 11.1428 8.04859 11.1367 8.18361C11.1114 8.72418 11.0251 9.09217 10.9002 9.416C10.7729 9.75482 10.5732 10.0618 10.315 10.3154C10.0613 10.5736 9.75438 10.7734 9.41556 10.9007C9.09223 11.026 8.72373 11.1113 8.18367 11.1367L7.82228 11.1519L7.72381 11.155C7.47358 11.1621 7.18375 11.1656 6.61273 11.1666L6.23407 11.1671H5.56966C5.19926 11.1684 4.82886 11.1646 4.45858 11.1555L4.36011 11.1524C4.23961 11.1479 4.11915 11.1426 3.99871 11.1367C3.45865 11.1113 3.09015 11.026 2.76632 10.9007C2.42768 10.7733 2.12091 10.5736 1.8674 10.3154C1.60902 10.0618 1.40912 9.75487 1.28166 9.416C1.15629 9.09268 1.07101 8.72418 1.04564 8.18361L1.03041 7.82222L1.02787 7.72375C1.01851 7.35363 1.01428 6.9834 1.01518 6.61317V5.56959C1.01378 5.19937 1.0175 4.82914 1.02635 4.45902L1.0299 4.36055C1.03396 4.24634 1.03904 4.13417 1.04513 3.99916C1.07051 3.45859 1.15578 3.09059 1.28115 2.76676C1.4089 2.4278 1.60916 2.12084 1.86791 1.86734C2.12127 1.60926 2.42786 1.40954 2.76632 1.2821C3.09015 1.15673 3.45814 1.07146 3.99871 1.04608C4.13373 1.03999 4.24641 1.03491 4.36011 1.03085L4.45858 1.02781C4.8287 1.01879 5.19892 1.0149 5.56915 1.01613L6.61273 1.01562ZM6.09094 3.5535C5.41785 3.5535 4.77233 3.82089 4.29639 4.29683C3.82044 4.77278 3.55306 5.4183 3.55306 6.09138C3.55306 6.76447 3.82044 7.40999 4.29639 7.88593C4.77233 8.36188 5.41785 8.62926 6.09094 8.62926C6.76403 8.62926 7.40955 8.36188 7.88549 7.88593C8.36143 7.40999 8.62882 6.76447 8.62882 6.09138C8.62882 5.4183 8.36143 4.77278 7.88549 4.29683C7.40955 3.82089 6.76403 3.5535 6.09094 3.5535ZM6.09094 4.56866C6.29091 4.56862 6.48892 4.60798 6.67368 4.68447C6.85844 4.76096 7.02632 4.8731 7.16774 5.01447C7.30917 5.15585 7.42136 5.32369 7.49791 5.50843C7.57447 5.69316 7.61389 5.89116 7.61392 6.09113C7.61395 6.2911 7.5746 6.48911 7.49811 6.67387C7.42161 6.85863 7.30948 7.02651 7.1681 7.16793C7.02673 7.30936 6.85888 7.42155 6.67415 7.4981C6.48942 7.57466 6.29141 7.61408 6.09145 7.61411C5.68759 7.61411 5.30028 7.45368 5.01472 7.16811C4.72915 6.88255 4.56872 6.49523 4.56872 6.09138C4.56872 5.68753 4.72915 5.30022 5.01472 5.01465C5.30028 4.72908 5.68759 4.56866 6.09145 4.56866M8.75622 2.79214C8.58795 2.79214 8.42657 2.85899 8.30758 2.97797C8.1886 3.09696 8.12175 3.25834 8.12175 3.42661C8.12175 3.59488 8.1886 3.75626 8.30758 3.87525C8.42657 3.99423 8.58795 4.06108 8.75622 4.06108C8.92449 4.06108 9.08587 3.99423 9.20486 3.87525C9.32384 3.75626 9.39069 3.59488 9.39069 3.42661C9.39069 3.25834 9.32384 3.09696 9.20486 2.97797C9.08587 2.85899 8.92449 2.79214 8.75622 2.79214Z" fill="white"/>
</svg>
