<svg width="13" height="13" viewBox="0 0 13 13" fill="none" xmlns="http://www.w3.org/2000/svg">
<path d="M9.90299 2.86049L9.22622 3.38922L6.34467 5.53055L3.46312 3.36807L2.78636 2.83934C2.62692 2.70745 2.4323 2.62523 2.22659 2.60287C2.02088 2.58051 1.81314 2.619 1.62909 2.71355C1.44504 2.80811 1.29278 2.95459 1.19116 3.13484C1.08955 3.31508 1.04305 3.52118 1.05743 3.7276V9.85552C1.05743 10.0462 1.13319 10.2291 1.26804 10.364C1.40289 10.4988 1.58578 10.5746 1.77649 10.5746H3.46312V6.49283L6.34467 8.65532L9.22622 6.49283V10.5746H10.9129C11.1036 10.5746 11.2865 10.4988 11.4213 10.364C11.5562 10.2291 11.6319 10.0462 11.6319 9.85552V3.7276C11.6418 3.52297 11.5921 3.31985 11.4888 3.14295C11.3854 2.96605 11.2329 2.82298 11.0498 2.73113C10.8666 2.63928 10.6608 2.60261 10.4572 2.62558C10.2536 2.64854 10.0611 2.73016 9.90299 2.86049Z" fill="white"/>
</svg>
