<svg width="15" height="15" viewBox="0 0 15 15" fill="none" xmlns="http://www.w3.org/2000/svg">
<path d="M3.98448 1.37227L4.96765 1.07585C5.29213 0.978171 5.64106 1.00187 5.94936 1.14252C6.25765 1.28317 6.50425 1.53117 6.64316 1.84025L7.33245 3.37313C7.45208 3.63906 7.48543 3.93578 7.4278 4.22163C7.37018 4.50749 7.22447 4.76811 7.01115 4.96692L5.96199 5.94451C5.82139 6.078 5.92798 6.59827 6.44165 7.48856C6.95583 8.37935 7.35326 8.73161 7.53649 8.67679L8.91101 8.25652C9.18962 8.1713 9.48792 8.1754 9.76409 8.26824C10.0403 8.36109 10.2804 8.53802 10.451 8.77425L11.4306 10.132C11.6285 10.4062 11.7201 10.7429 11.6885 11.0795C11.6568 11.4161 11.504 11.7298 11.2585 11.9623L10.5012 12.6795C10.2568 12.9111 9.95526 13.0736 9.62747 13.1505C9.29969 13.2275 8.95735 13.2161 8.63539 13.1176C7.04871 12.6318 5.57928 11.1903 4.2073 8.81333C2.83228 6.4328 2.31303 4.42483 2.67493 2.78435C2.74792 2.45379 2.90775 2.14868 3.13794 1.90047C3.36813 1.65226 3.66035 1.46992 3.98448 1.37227Z" fill="white"/>
</svg>
