<svg width="42" height="42" viewBox="0 0 42 42" fill="none" xmlns="http://www.w3.org/2000/svg">
<path fill-rule="evenodd" clip-rule="evenodd" d="M34.8251 17.3909C34.2955 11.9584 31.0838 3.41675 21.1585 3.41675C11.233 3.41675 8.02135 11.9584 7.49179 17.3909C5.63398 18.096 4.40854 19.8797 4.41679 21.8667V24.2584C4.41679 26.9002 6.5584 29.0417 9.2001 29.0417C11.8419 29.0417 13.9835 26.9001 13.9835 24.2584V21.8667C13.9748 19.9225 12.7945 18.1755 10.9938 17.4422C11.3355 14.2988 13.0097 6.83344 21.1585 6.83344C29.3072 6.83344 30.9643 14.2988 31.306 17.4422C29.509 18.1771 28.3346 19.9253 28.3335 21.8667V24.2584C28.3371 25.1585 28.5938 26.0394 29.0741 26.8006C29.5543 27.5618 30.2389 28.1726 31.0497 28.5634C30.3322 29.913 28.5043 31.7409 24.0113 32.2876C23.1133 30.9238 21.3757 30.3862 19.8643 31.0045C18.3529 31.6227 17.4903 33.224 17.8055 34.8262C18.1206 36.4284 19.5255 37.5834 21.1585 37.5834C21.7912 37.5799 22.4105 37.4007 22.9474 37.0659C23.4843 36.7311 23.9177 36.2538 24.1993 35.6872C31.528 34.8501 33.8685 31.0747 34.603 28.8538C36.5903 28.2101 37.9269 26.3473 37.9001 24.2584V21.8667C37.9083 19.8797 36.6829 18.096 34.8251 17.3909ZM10.5668 24.2584C10.5668 25.0132 9.95491 25.6251 9.2001 25.6251C8.44528 25.6251 7.83348 25.0133 7.83348 24.2584V21.8667C7.8321 21.6864 7.86643 21.5076 7.93449 21.3405C8.00256 21.1735 8.103 21.0216 8.23005 20.8936C8.35709 20.7656 8.50821 20.664 8.67471 20.5946C8.84121 20.5253 9.01978 20.4896 9.20014 20.4896C9.38049 20.4896 9.55907 20.5253 9.72556 20.5946C9.89206 20.664 10.0432 20.7656 10.1702 20.8936C10.2973 21.0216 10.3977 21.1735 10.4658 21.3405C10.5338 21.5076 10.5682 21.6864 10.5668 21.8667V24.2584ZM31.7501 21.8667C31.7501 21.1119 32.362 20.5001 33.1168 20.5001C33.8716 20.5001 34.4835 21.1119 34.4835 21.8667V24.2584C34.4835 25.0132 33.8716 25.6251 33.1168 25.6251C32.362 25.6251 31.7501 25.0133 31.7501 24.2584V21.8667Z" fill="white"/>
</svg>
