<svg width="47" height="47" viewBox="0 0 47 47" fill="none" xmlns="http://www.w3.org/2000/svg">
<path fill-rule="evenodd" clip-rule="evenodd" d="M23.5 41.125C25.8145 41.125 28.1064 40.6691 30.2448 39.7834C32.3832 38.8976 34.3261 37.5994 35.9628 35.9628C37.5994 34.3261 38.8976 32.3832 39.7834 30.2448C40.6691 28.1064 41.125 25.8145 41.125 23.5C41.125 21.1855 40.6691 18.8936 39.7834 16.7552C38.8976 14.6168 37.5994 12.6739 35.9628 11.0372C34.3261 9.40061 32.3832 8.10236 30.2448 7.21662C28.1064 6.33088 25.8145 5.875 23.5 5.875C18.8256 5.875 14.3426 7.73191 11.0372 11.0372C7.73191 14.3426 5.875 18.8256 5.875 23.5C5.875 28.1744 7.73191 32.6574 11.0372 35.9628C14.3426 39.2681 18.8256 41.125 23.5 41.125ZM21.1167 15.6471L32.1695 21.7884C32.4747 21.9581 32.7289 22.2062 32.9059 22.5071C33.0829 22.8081 33.1763 23.1509 33.1763 23.5C33.1763 23.8491 33.0829 24.1919 32.9059 24.4929C32.7289 24.7938 32.4747 25.0419 32.1695 25.2116L21.1167 31.3529C20.7588 31.5518 20.3552 31.6538 19.9457 31.6487C19.5363 31.6436 19.1353 31.5316 18.7825 31.3239C18.4297 31.1161 18.1373 30.8197 17.9342 30.4642C17.7312 30.1086 17.6246 29.7061 17.625 29.2967V17.7033C17.6246 17.2939 17.7312 16.8914 17.9342 16.5358C18.1373 16.1803 18.4297 15.8839 18.7825 15.6761C19.1353 15.4684 19.5363 15.3564 19.9457 15.3513C20.3552 15.3462 20.7588 15.4482 21.1167 15.6471Z" fill="white"/>
</svg>
